<?xml version="1.0" encoding="iso-8859-1"?>
<!-- Uploaded to: SVG Repo, www.svgrepo.com, Generator: SVG Repo Mixer Tools -->
<svg fill="#000000" height="800px" width="800px" version="1.1" id="Layer_1" xmlns="http://www.w3.org/2000/svg" xmlns:xlink="http://www.w3.org/1999/xlink" 
	 viewBox="0 0 512 512" xml:space="preserve">
<g>
	<g>
		<path d="M416,357.808H285.784c9.936-22.672,21.048-50.4,28.456-75.992c47.68-22.168,80.832-70.544,80.832-126.824
			C395.08,77.792,332.808,15.2,256,15.2S116.92,77.792,116.92,155c0,56.272,33.144,104.648,80.824,126.816
			c7.4,25.6,18.52,53.32,28.456,75.992H96L0,496.8h512L416,357.808z M209.784,155c0-25.656,20.688-46.456,46.216-46.456
			s46.216,20.8,46.216,46.456S281.528,201.456,256,201.456S209.784,180.656,209.784,155z M60.992,464.8l51.792-74.992h5.088
			l-0.096,0.144L223.56,464.8H60.992z M172.984,389.808h67.928c3.368,7.016,5.888,12.032,6.936,14.088L256,420.048l8.2-16.152
			c1.04-2.072,3.544-7.088,6.904-14.088h68.904L257.88,449.88L172.984,389.808z M394.208,389.808h5l51.8,74.992h-159.32
			L394.208,389.808z"/>
	</g>
</g>
</svg>